<?xml version="1.0" encoding="iso-8859-1"?>
<!-- Generator: Adobe Illustrator 19.0.0, SVG Export Plug-In . SVG Version: 6.00 Build 0)  -->
<svg version="1.1" id="Capa_1" xmlns="http://www.w3.org/2000/svg" xmlns:xlink="http://www.w3.org/1999/xlink" x="0px" y="0px"
	 viewBox="0 0 512 512" style="enable-background:new 0 0 512 512;" xml:space="preserve">
<g>
	<path style="fill:#50596D;" d="M102.134,115.052h-9.883c-4.716,0-8.539-3.463-8.539-7.734v-16.51c0-4.271,3.823-7.734,8.539-7.734
		h9.883V115.052z"/>
	<path style="fill:#50596D;" d="M102.134,170.667h-9.883c-4.716,0-8.539-3.463-8.539-7.734v-16.51c0-4.271,3.823-7.734,8.539-7.734
		h9.883V170.667z"/>
	<path style="fill:#50596D;" d="M390.014,164.41h9.883c4.716,0,8.54,3.463,8.54,7.734v131.215c0,4.271-3.823,7.734-8.54,7.734
		h-9.883V164.41z"/>
	<path style="fill:#50596D;" d="M390.014,83.074h9.883c4.716,0,8.54,3.463,8.54,7.734v16.51c0,4.271-3.823,7.734-8.54,7.734h-9.883
		V83.074z"/>
	<path style="fill:#50596D;" d="M390.014,432.749h9.883c4.716,0,8.54,3.463,8.54,7.734v16.51c0,4.271-3.823,7.734-8.54,7.734h-9.883
		V432.749z"/>
</g>
<path style="fill:#5C6376;" d="M393.1,31.462v449.076c0,17.379-14.083,31.462-31.451,31.462H130.497
	c-17.369,0-31.451-14.083-31.451-31.462V31.462C99.046,14.082,113.129,0,130.497,0H361.65C379.018,0,393.1,14.082,393.1,31.462z"/>
<path style="fill:#4C5568;" d="M393.104,31.462v449.076c0,17.379-14.083,31.462-31.451,31.462h-28.845
	c17.369,0,31.451-14.083,31.451-31.462V31.462C364.259,14.082,350.177,0,332.807,0h28.845C379.022,0,393.104,14.082,393.104,31.462z
	"/>
<path style="fill:#707784;" d="M159.342,512h-28.845c-17.369,0-31.451-14.083-31.451-31.462V31.462
	C99.046,14.082,113.129,0,130.497,0h28.845c-17.369,0-31.451,14.082-31.451,31.462v449.076C127.891,497.917,141.974,512,159.342,512
	z"/>
<rect x="99.049" y="55.96" style="fill:#D1D9E8;" width="294.06" height="408.76"/>
<rect x="99.039" y="55.962" style="fill:#E2E9F2;" width="28.848" height="408.77"/>
<rect x="364.259" y="55.96" style="fill:#BCC7D8;" width="28.845" height="408.76"/>
<rect x="99.039" y="55.962" style="fill:#FF78BF;" width="294.06" height="37.887"/>
<rect x="364.259" y="55.962" style="fill:#F261B4;" width="28.845" height="37.887"/>
<rect x="99.049" y="55.962" style="fill:#FF94D1;" width="28.845" height="37.887"/>
<g>
	<path style="fill:#4C5568;" d="M259.63,36.576h-25.722c-4.267,0-7.726-3.459-7.726-7.726s3.459-7.726,7.726-7.726h25.722
		c4.268,0,7.726,3.459,7.726,7.726S263.897,36.576,259.63,36.576z"/>
	<path style="fill:#4C5568;" d="M205.753,36.576h-1.043c-4.267,0-7.726-3.459-7.726-7.726s3.459-7.726,7.726-7.726h1.043
		c4.267,0,7.726,3.459,7.726,7.726S210.02,36.576,205.753,36.576z"/>
	<path style="fill:#4C5568;" d="M259.63,494.7h-25.722c-4.267,0-7.726-3.459-7.726-7.726s3.459-7.726,7.726-7.726h25.722
		c4.268,0,7.726,3.459,7.726,7.726S263.897,494.7,259.63,494.7z"/>
</g>
<path style="fill:#FBD51A;" d="M338.388,210.672v123.622c0,4.552-3.69,8.241-8.241,8.241H152.729c-4.552,0-8.241-3.69-8.241-8.241
	v-115.38c0-4.552,3.69-8.241,8.241-8.241h185.659V210.672z"/>
<path style="fill:#EDC20F;" d="M338.388,210.672v69.29c-29.906-9.55-51.931-36.705-53.878-69.29H338.388z"/>
<path style="fill:#D1D9E8;" d="M179.978,319.286c-2.674,0-5.273-1.389-6.703-3.873c-2.129-3.698-0.858-8.422,2.841-10.551
	l121.903-68.878c3.696-2.129,8.422-0.858,10.551,2.841c2.129,3.698,0.857,8.422-2.841,10.551l-121.903,68.878
	C182.612,318.953,181.286,319.286,179.978,319.286z"/>
<circle style="fill:#FF78BF;" cx="365.078" cy="202.93" r="63.21"/>
<path style="fill:#FBD51A;" d="M376.008,202.925l13.251-13.251c3.017-3.017,3.017-7.909,0-10.927s-7.908-3.018-10.928,0
	l-13.25,13.25l-13.251-13.25c-3.018-3.017-7.909-3.017-10.928,0c-3.017,3.017-3.017,7.909,0,10.927l13.251,13.251l-13.251,13.251
	c-3.017,3.017-3.017,7.909,0,10.927c1.509,1.509,3.486,2.263,5.464,2.263c1.977,0,3.955-0.755,5.464-2.263l13.251-13.25l13.25,13.25
	c1.509,1.509,3.487,2.263,5.464,2.263s3.955-0.755,5.464-2.263c3.017-3.017,3.017-7.909,0-10.927L376.008,202.925z"/>
<g>
</g>
<g>
</g>
<g>
</g>
<g>
</g>
<g>
</g>
<g>
</g>
<g>
</g>
<g>
</g>
<g>
</g>
<g>
</g>
<g>
</g>
<g>
</g>
<g>
</g>
<g>
</g>
<g>
</g>
</svg>
